<svg width="31" height="31" viewBox="0 0 31 31" fill="none" xmlns="http://www.w3.org/2000/svg">
<path d="M15.5 0C24.056 2.58017e-07 31 6.944 31 15.5C31 24.056 24.056 31 15.5 31C6.944 31 2.58e-07 24.056 0 15.5C0 6.944 6.944 0 15.5 0ZM12.1055 12.1055L6.2002 24.7998L18.8945 18.8945L24.7998 6.2002L12.1055 12.1055ZM15.5 13.7949C16.4454 13.7949 17.205 14.5546 17.2051 15.5C17.2051 16.4455 16.4455 17.2051 15.5 17.2051C14.5545 17.2051 13.7949 16.4455 13.7949 15.5C13.795 14.5545 14.5545 13.7949 15.5 13.7949Z" fill="white" fill-opacity="0.3"/>
</svg>
