<svg width="39" height="35" viewBox="0 0 39 35" fill="none" xmlns="http://www.w3.org/2000/svg">
<path d="M2.03234 23.7078C1.88918 23.8468 1.85339 24.1132 1.85339 24.2291L6.50597 31.5272C6.98316 31.7589 8.52805 32.257 10.8901 32.396L16.9743 31.3534L17.1532 27.0093C14.804 27.27 9.16415 27.6175 5.39797 26.9224C6.21056 24.3032 7.72626 22.7318 8.47437 22.2308L10.9796 23.7078L10.7112 17.7998L3.10601 18.1473L5.52177 20.0587C4.41828 21.2172 2.1755 23.5688 2.03234 23.7078Z" fill="#1DBF73"/>
<path d="M5.07441 28.2257C5.1614 27.7658 5.27112 27.3313 5.39797 26.9224M5.39797 26.9224C6.21056 24.3032 7.72626 22.7318 8.47437 22.2308L10.9796 23.7078L10.7112 17.7998L3.10601 18.1473L5.52177 20.0587C4.41828 21.2172 2.1755 23.5688 2.03234 23.7078C1.88918 23.8468 1.85339 24.1132 1.85339 24.2291L6.50597 31.5272C6.98316 31.7589 8.52805 32.257 10.8901 32.396L16.9743 31.3534L17.1532 27.0093C14.804 27.27 9.16415 27.6175 5.39797 26.9224Z" stroke="#1DBF73" stroke-width="0.154274"/>
<path d="M23.5869 4.87032C23.5345 4.68043 23.3148 4.51711 23.2115 4.45919L14.3764 4.72273C13.9312 5.00818 12.7145 6.0583 11.4095 7.97518L9.29724 13.6129L13.0821 15.9355C14.0242 13.8296 16.5342 8.91298 19.0372 6.09333C20.9668 8.08631 21.6104 10.1466 21.6832 11.0263L19.1133 12.3945L24.5165 15.1228L28.0092 8.55345L25.0966 9.62929C24.6152 8.12209 23.6393 5.06021 23.5869 4.87032Z" fill="#1DBF73"/>
<path d="M18.0367 5.16962C18.4033 5.47272 18.7359 5.78221 19.0372 6.09333M19.0372 6.09333C20.9668 8.08631 21.6104 10.1466 21.6832 11.0263L19.1133 12.3945L24.5165 15.1228L28.0092 8.55345L25.0966 9.62929C24.6152 8.12209 23.6393 5.06021 23.5869 4.87032C23.5345 4.68043 23.3148 4.51711 23.2115 4.45919L14.3764 4.72273C13.9312 5.00818 12.7145 6.0583 11.4095 7.97518L9.29724 13.6129L13.0821 15.9355C14.0242 13.8296 16.5342 8.91298 19.0372 6.09333Z" stroke="#1DBF73" stroke-width="0.154274"/>
<path d="M32.0609 31.5195C32.2565 31.5704 32.512 31.4673 32.6153 31.4094L36.7978 23.8477C36.7658 23.3306 36.4376 21.7824 35.3806 19.7265L31.4087 15.1313L27.4449 17.1529C28.852 18.9981 31.9818 23.5672 33.245 27.0819C30.5028 27.7082 28.3435 27.2192 27.5226 26.8406L27.5873 23.9953L22.4525 27.1751L26.565 33.3969L27.0618 30.4096C28.6467 30.7584 31.8653 31.4687 32.0609 31.5195Z" fill="#1DBF73"/>
<path d="M34.5691 26.7024C34.1155 26.8592 33.6732 26.9841 33.245 27.0819M33.245 27.0819C30.5028 27.7082 28.3435 27.2192 27.5226 26.8406L27.5873 23.9953L22.4525 27.1751L26.565 33.3969L27.0618 30.4096C28.6467 30.7584 31.8653 31.4687 32.0609 31.5195C32.2565 31.5704 32.512 31.4673 32.6153 31.4094L36.7978 23.8477C36.7658 23.3306 36.4376 21.7824 35.3806 19.7265L31.4087 15.1313L27.4449 17.1529C28.852 18.9981 31.9818 23.5672 33.245 27.0819Z" stroke="#1DBF73" stroke-width="0.154274"/>
<g clip-path="url(#clip0_694_2140)">
<path fill-rule="evenodd" clip-rule="evenodd" d="M24.0426 19.0171L18.2855 21.7953C17.8062 22.0283 17.4023 22.1448 17.0792 22.1448C16.713 22.1448 16.4491 21.9977 16.2821 21.7033C16.0721 21.323 16.1636 20.7159 16.5245 20.0719C16.7399 19.6978 17.0146 19.3544 17.2838 19.0232C17.2192 19.1397 16.6645 20.1946 17.2731 20.6914C17.3915 20.7895 17.5639 20.8385 17.7739 20.8385C17.9409 20.8385 18.1347 20.8079 18.3502 20.7466L24.0426 19.0171Z" fill="#1DBF73"/>
</g>
<defs>
<clipPath id="clip0_694_2140">
<rect width="7.87359" height="3.12776" fill="white" transform="translate(16.1691 19.0166)"/>
</clipPath>
</defs>
</svg>
