<svg width="36" height="30" viewBox="0 0 36 30" fill="none" xmlns="http://www.w3.org/2000/svg">
<rect width="36" height="30" transform="translate(-0.000244141)" fill="white"/>
<path d="M30.4998 22.8318C31.3248 22.8318 31.9998 23.7318 31.9998 24.8318C31.9998 25.9318 31.3248 26.8318 30.4998 26.8318H6.49976C5.67476 26.8318 4.99976 25.9318 4.99976 24.8318C4.99976 23.7318 5.67476 22.8318 6.49976 22.8318H30.4998ZM30.4998 13.8318C31.3248 13.8318 31.9998 14.7318 31.9998 15.8318C31.9998 16.9318 31.3248 17.8318 30.4998 17.8318H6.49976C5.67476 17.8318 4.99976 16.9318 4.99976 15.8318C4.99976 14.7318 5.67476 13.8318 6.49976 13.8318H30.4998ZM30.4998 3.83179C31.3248 3.83179 31.9998 4.73179 31.9998 5.83179C31.9998 6.93179 31.3248 7.83179 30.4998 7.83179H6.49976C5.67476 7.83179 4.99976 6.93179 4.99976 5.83179C4.99976 4.73179 5.67476 3.83179 6.49976 3.83179H30.4998Z" fill="#1E2226"/>
</svg>
