<svg width="39" height="42" viewBox="0 0 39 42" fill="none" xmlns="http://www.w3.org/2000/svg">
<path d="M2.37316 27.2078C2.23 27.3468 2.19421 27.6132 2.19421 27.7291L6.84679 35.0272C7.32398 35.2589 8.86887 35.757 11.231 35.896L17.3151 34.8534L17.494 30.5093C15.1449 30.77 9.50497 31.1175 5.73879 30.4224C6.55138 27.8032 8.06708 26.2318 8.81519 25.7308L11.3204 27.2078L11.052 21.2998L3.44683 21.6473L5.86259 23.5587C4.7591 24.7172 2.51632 27.0688 2.37316 27.2078Z" fill="#E5E5E5" fill-opacity="0.4"/>
<path d="M5.41523 31.7257C5.50222 31.2658 5.61194 30.8313 5.73879 30.4224M5.73879 30.4224C6.55138 27.8032 8.06708 26.2318 8.81519 25.7308L11.3204 27.2078L11.052 21.2998L3.44683 21.6473L5.86259 23.5587C4.7591 24.7172 2.51632 27.0688 2.37316 27.2078C2.23 27.3468 2.19421 27.6132 2.19421 27.7291L6.84679 35.0272C7.32398 35.2589 8.86887 35.757 11.231 35.896L17.3151 34.8534L17.494 30.5093C15.1449 30.77 9.50497 31.1175 5.73879 30.4224Z" stroke="#E5E5E5" stroke-opacity="0.4" stroke-width="0.154274"/>
<path d="M23.9278 8.37032C23.8754 8.18043 23.6556 8.01711 23.5523 7.95919L14.7172 8.22273C14.272 8.50818 13.0553 9.5583 11.7503 11.4752L9.63806 17.1129L13.4229 19.4355C14.365 17.3296 16.875 12.413 19.378 9.59333C21.3077 11.5863 21.9512 13.6466 22.024 14.5263L19.4541 15.8945L24.8574 18.6228L28.35 12.0535L25.4374 13.1293C24.956 11.6221 23.9802 8.56021 23.9278 8.37032Z" fill="#E5E5E5" fill-opacity="0.4"/>
<path d="M18.3775 8.66962C18.7441 8.97272 19.0767 9.28221 19.378 9.59333M19.378 9.59333C21.3077 11.5863 21.9512 13.6466 22.024 14.5263L19.4541 15.8945L24.8574 18.6228L28.35 12.0535L25.4374 13.1293C24.956 11.6221 23.9802 8.56021 23.9278 8.37032C23.8754 8.18043 23.6556 8.01711 23.5523 7.95919L14.7172 8.22273C14.272 8.50818 13.0553 9.5583 11.7503 11.4752L9.63806 17.1129L13.4229 19.4355C14.365 17.3296 16.875 12.413 19.378 9.59333Z" stroke="#E5E5E5" stroke-opacity="0.4" stroke-width="0.154274"/>
<path d="M32.4017 35.0195C32.5973 35.0704 32.8528 34.9673 32.9561 34.9094L37.1386 27.3477C37.1066 26.8306 36.7784 25.2824 35.7214 23.2265L31.7495 18.6313L27.7857 20.6529C29.1928 22.4981 32.3227 27.0672 33.5859 30.5819C30.8436 31.2082 28.6843 30.7192 27.8634 30.3406L27.9281 27.4953L22.7933 30.6751L26.9058 36.8969L27.4026 33.9096C28.9875 34.2584 32.2062 34.9687 32.4017 35.0195Z" fill="#E5E5E5" fill-opacity="0.4"/>
<path d="M34.9099 30.2024C34.4563 30.3592 34.014 30.4841 33.5859 30.5819M33.5859 30.5819C30.8436 31.2082 28.6843 30.7192 27.8634 30.3406L27.9281 27.4953L22.7933 30.6751L26.9058 36.8969L27.4026 33.9096C28.9875 34.2584 32.2062 34.9687 32.4017 35.0195C32.5973 35.0704 32.8528 34.9673 32.9561 34.9094L37.1386 27.3477C37.1066 26.8306 36.7784 25.2824 35.7214 23.2265L31.7495 18.6313L27.7857 20.6529C29.1928 22.4981 32.3227 27.0672 33.5859 30.5819Z" stroke="#E5E5E5" stroke-opacity="0.4" stroke-width="0.154274"/>
<g clip-path="url(#clip0_674_596)">
<path fill-rule="evenodd" clip-rule="evenodd" d="M24.3834 22.5171L18.6264 25.2953C18.147 25.5283 17.7431 25.6448 17.42 25.6448C17.0538 25.6448 16.7899 25.4977 16.623 25.2033C16.4129 24.823 16.5045 24.2159 16.8653 23.5719C17.0807 23.1978 17.3554 22.8544 17.6247 22.5232C17.56 22.6397 17.0053 23.6946 17.6139 24.1914C17.7324 24.2895 17.9047 24.3385 18.1147 24.3385C18.2817 24.3385 18.4756 24.3079 18.691 24.2466L24.3834 22.5171Z" fill="white"/>
</g>
<defs>
<clipPath id="clip0_674_596">
<rect width="7.87359" height="3.12776" fill="white" transform="translate(16.5099 22.5166)"/>
</clipPath>
</defs>
</svg>
