<svg width="39" height="42" viewBox="0 0 39 42" fill="none" xmlns="http://www.w3.org/2000/svg">
<path d="M2.03954 27.2088C1.89638 27.3478 1.8606 27.6142 1.8606 27.7301L6.51317 35.0282C6.99036 35.2598 8.53526 35.758 10.8973 35.897L16.9815 34.8544L17.1604 30.5103C14.8112 30.7709 9.17135 31.1185 5.40517 30.4234C6.21776 27.8041 7.73346 26.2328 8.48157 25.7318L10.9868 27.2088L10.7184 21.3008L3.11321 21.6483L5.52897 23.5597C4.42548 24.7181 2.1827 27.0698 2.03954 27.2088Z" fill="white" fill-opacity="0.4"/>
<path d="M5.08161 31.7266C5.1686 31.2667 5.27832 30.8323 5.40518 30.4234M5.40518 30.4234C6.21776 27.8041 7.73346 26.2328 8.48157 25.7318L10.9868 27.2088L10.7184 21.3008L3.11321 21.6483L5.52897 23.5597C4.42548 24.7181 2.1827 27.0698 2.03954 27.2088C1.89638 27.3478 1.8606 27.6142 1.8606 27.7301L6.51317 35.0282C6.99036 35.2598 8.53526 35.758 10.8973 35.897L16.9815 34.8544L17.1604 30.5103C14.8112 30.7709 9.17135 31.1185 5.40518 30.4234Z" stroke="white" stroke-opacity="0.4" stroke-width="0.154274"/>
<path d="M23.5941 8.37032C23.5417 8.18043 23.322 8.01711 23.2187 7.95919L14.3836 8.22273C13.9384 8.50818 12.7217 9.5583 11.4167 11.4752L9.30445 17.1129L13.0893 19.4355C14.0314 17.3296 16.5414 12.413 19.0444 9.59333C20.974 11.5863 21.6176 13.6466 21.6904 14.5263L19.1205 15.8945L24.5237 18.6228L28.0164 12.0535L25.1038 13.1293C24.6224 11.6221 23.6465 8.56021 23.5941 8.37032Z" fill="white" fill-opacity="0.4"/>
<path d="M18.0439 8.66962C18.4105 8.97272 18.7431 9.28221 19.0444 9.59333M19.0444 9.59333C20.974 11.5863 21.6176 13.6466 21.6904 14.5263L19.1205 15.8945L24.5237 18.6228L28.0164 12.0535L25.1038 13.1293C24.6224 11.6221 23.6465 8.56021 23.5941 8.37032C23.5417 8.18043 23.322 8.01711 23.2187 7.95919L14.3836 8.22273C13.9384 8.50818 12.7217 9.5583 11.4167 11.4752L9.30445 17.1129L13.0893 19.4355C14.0314 17.3296 16.5414 12.413 19.0444 9.59333Z" stroke="white" stroke-opacity="0.4" stroke-width="0.154274"/>
<path d="M32.0681 35.0205C32.2637 35.0714 32.5192 34.9683 32.6225 34.9104L36.805 27.3487C36.773 26.8316 36.4448 25.2833 35.3878 23.2274L31.4159 18.6323L27.4521 20.6538C28.8592 22.4991 31.989 27.0682 33.2522 30.5829C30.51 31.2092 28.3507 30.7202 27.5298 30.3416L27.5945 27.4963L22.4597 30.676L26.5722 36.8978L27.069 33.9106C28.6539 34.2594 31.8725 34.9696 32.0681 35.0205Z" fill="white" fill-opacity="0.4"/>
<path d="M34.5763 30.2034C34.1227 30.3602 33.6804 30.4851 33.2522 30.5829M33.2522 30.5829C30.51 31.2092 28.3507 30.7202 27.5298 30.3416L27.5945 27.4963L22.4597 30.676L26.5722 36.8978L27.069 33.9106C28.6539 34.2594 31.8725 34.9696 32.0681 35.0205C32.2637 35.0714 32.5192 34.9683 32.6225 34.9104L36.805 27.3487C36.773 26.8316 36.4448 25.2833 35.3878 23.2274L31.4159 18.6323L27.4521 20.6538C28.8592 22.4991 31.989 27.0682 33.2522 30.5829Z" stroke="white" stroke-opacity="0.4" stroke-width="0.154274"/>
<g clip-path="url(#clip0_563_3610)">
<path fill-rule="evenodd" clip-rule="evenodd" d="M24.0498 22.5166L18.2927 25.2948C17.8134 25.5278 17.4095 25.6444 17.0864 25.6444C16.7202 25.6444 16.4563 25.4972 16.2893 25.2028C16.0793 24.8226 16.1709 24.2154 16.5317 23.5715C16.7471 23.1973 17.0218 22.8539 17.291 22.5227C17.2264 22.6393 16.6717 23.6941 17.2803 24.1909C17.3987 24.289 17.5711 24.3381 17.7811 24.3381C17.9481 24.3381 18.1419 24.3074 18.3574 24.2461L24.0498 22.5166Z" fill="white"/>
</g>
<defs>
<clipPath id="clip0_563_3610">
<rect width="7.87359" height="3.12776" fill="white" transform="translate(16.1761 22.5166)"/>
</clipPath>
</defs>
</svg>
