<svg width="33" height="30" viewBox="0 0 33 30" fill="none" xmlns="http://www.w3.org/2000/svg">
<path d="M6.65862 9.72496H22.888C24.0518 9.72496 25.1665 10.284 25.7927 11.2638C26.1413 11.8085 26.3527 12.4985 26.1836 13.333C25.8807 14.8309 24.5198 15.8802 22.991 15.8802H10.0804V28.9903H16.4504V22.4922L19.673 22.5263C20.1205 22.531 20.5386 22.7499 20.7938 23.1174C20.9193 23.2981 21.0632 23.5333 21.2229 23.8373L23.9467 28.4429C24.1978 28.8669 24.6187 29.1717 25.1057 29.2501C25.2074 29.2665 25.3111 29.2767 25.4134 29.2767H32.5966L27.8624 21.3359C27.8624 21.3359 33.6853 18.7798 32.5966 10.9481C32.5966 10.9481 31.454 4.09541 23.8901 3.11635H6.65862V0.723267L0 6.37941L6.53037 11.981L6.65862 9.72427V9.72496Z" fill="#231F20"/>
</svg>
