<svg width="102" height="55" viewBox="0 0 102 55" fill="none" xmlns="http://www.w3.org/2000/svg">
<path d="M97.2927 54.2714H4.70731C2.38386 54.2714 0.5 52.7822 0.5 50.9454V36.3417C0.5 35.4397 0.963531 34.5761 1.78468 33.9493C2.60583 33.3225 3.71424 32.9864 4.85384 33.0174C4.93 33.0197 5.00835 33.0203 5.08596 33.0203C8.93565 33.0203 12.0679 30.5441 12.0679 27.5007C12.0679 24.4574 8.93565 21.9807 5.08596 21.9807C5.00835 21.9807 4.93 21.9818 4.85384 21.9835C3.71351 22.0151 2.60583 21.6784 1.78468 21.0517C0.964256 20.4249 0.5 19.5612 0.5 18.6592V4.05554C0.5 2.21876 2.38386 0.729492 4.70731 0.729492H97.2927C99.6161 0.729492 101.5 2.21876 101.5 4.05554V18.6603C101.5 19.563 101.036 20.4266 100.215 21.0534C99.3934 21.6802 98.285 22.0162 97.144 21.9841C97.0417 21.9812 96.9488 21.9801 96.8596 21.9801C93.0099 21.9801 89.8777 24.4563 89.8777 27.5002C89.8777 30.5441 93.0099 33.0197 96.8596 33.0197C96.9488 33.0197 97.0417 33.0186 97.144 33.0157C98.285 32.9841 99.3934 33.3202 100.215 33.9464C101.036 34.5732 101.5 35.4368 101.5 36.3394V50.9442C101.5 52.781 99.6161 54.2703 97.2927 54.2703V54.2714Z" fill="#F14215"/>
<path d="M70.4464 14.58C68.123 14.58 66.2391 13.0908 66.2391 11.254V5.51941C66.2391 3.68263 68.123 2.19336 70.4464 2.19336C72.7699 2.19336 74.6537 3.68263 74.6537 5.51941V11.254C74.6537 13.0908 72.7699 14.58 70.4464 14.58ZM70.4464 35.8931C68.123 35.8931 66.2391 34.4039 66.2391 32.5671V21.9105C66.2391 20.0737 68.123 18.5845 70.4464 18.5845C72.7699 18.5845 74.6537 20.0737 74.6537 21.9105V32.5671C74.6537 34.4039 72.7699 35.8931 70.4464 35.8931ZM70.4464 52.2842C68.123 52.2842 66.2391 50.795 66.2391 48.9582V43.2236C66.2391 41.3868 68.123 39.8976 70.4464 39.8976C72.7699 39.8976 74.6537 41.3868 74.6537 43.2236V48.9582C74.6537 50.795 72.7699 52.2842 70.4464 52.2842Z" fill="white" fill-opacity="0.15"/>
<path fill-rule="evenodd" clip-rule="evenodd" d="M61.073 31.7295L16.7714 51.2707C13.0831 52.9099 9.97494 53.7295 7.48842 53.7295C4.67036 53.7295 2.6397 52.6942 1.355 50.6236C-0.261239 47.9491 0.443276 43.6785 3.21989 39.1491C4.87757 36.5177 6.99112 34.102 9.06322 31.7726C8.56592 32.5922 4.29738 40.0118 8.98034 43.506C9.89206 44.1962 11.2182 44.5413 12.8344 44.5413C14.1191 44.5413 15.6111 44.3256 17.2687 43.8942L61.073 31.7295Z" fill="white" fill-opacity="0.2"/>
<rect x="18.563" y="5.7778" width="35.4503" height="35.4503" rx="17.7252" stroke="white" stroke-opacity="0.8" stroke-width="0.668874"/>
<path d="M30.0049 17.5936C29.673 17.5936 29.3923 17.4787 29.1626 17.249C28.9456 17.0193 28.8371 16.7385 28.8371 16.4067C28.8371 16.0749 28.9456 15.7941 29.1626 15.5644C29.3923 15.3346 29.673 15.2198 30.0049 15.2198C30.3367 15.2198 30.6111 15.3346 30.828 15.5644C31.0578 15.7941 31.1726 16.0749 31.1726 16.4067C31.1726 16.7385 31.0578 17.0193 30.828 17.249C30.6111 17.4787 30.3367 17.5936 30.0049 17.5936ZM30.8663 32.0662C30.8663 32.9978 30.6302 33.6806 30.158 34.1145C29.6858 34.5485 28.9966 34.7654 28.0905 34.7654H27.0759V33.2914H27.8034C28.2883 33.2914 28.6265 33.1957 28.818 33.0042C29.0222 32.8128 29.1243 32.4873 29.1243 32.0279V19.2974H30.8663V32.0662Z" fill="white"/>
<path d="M40.3816 29.7881L37.5867 24.715H36.8018V29.7881H33.5282V16.3493H39.0224C40.0817 16.3493 40.9815 16.5343 41.7217 16.9044C42.4747 17.2745 43.0362 17.785 43.4063 18.4359C43.7764 19.074 43.9615 19.7887 43.9615 20.58C43.9615 21.4734 43.7062 22.271 43.1957 22.973C42.698 23.6749 41.9578 24.1726 40.9751 24.4662L44.0763 29.7881H40.3816ZM36.8018 22.3986H38.831C39.4308 22.3986 39.8775 22.2519 40.171 21.9583C40.4773 21.6648 40.6305 21.25 40.6305 20.714C40.6305 20.2035 40.4773 19.8015 40.171 19.508C39.8775 19.2144 39.4308 19.0676 38.831 19.0676H36.8018V22.3986Z" fill="#1DBF73"/>
<path d="M26.8029 49.6145L27.6684 46.7045H28.4849L27.2569 50.2383H26.7474L26.8029 49.6145ZM26.1399 46.7045L27.0217 49.6275L27.0642 50.2383H26.5547L25.3201 46.7045H26.1399ZM28.7021 48.5106V48.4355C28.7021 48.1807 28.7392 47.9445 28.8132 47.7267C28.8872 47.5068 28.9939 47.3163 29.1332 47.1552C29.2748 46.9919 29.4468 46.8656 29.6493 46.7763C29.8539 46.6849 30.0847 46.6392 30.3417 46.6392C30.6008 46.6392 30.8316 46.6849 31.0341 46.7763C31.2387 46.8656 31.4118 46.9919 31.5533 47.1552C31.6949 47.3163 31.8026 47.5068 31.8767 47.7267C31.9507 47.9445 31.9877 48.1807 31.9877 48.4355V48.5106C31.9877 48.7653 31.9507 49.0016 31.8767 49.2193C31.8026 49.437 31.6949 49.6275 31.5533 49.7908C31.4118 49.952 31.2398 50.0782 31.0373 50.1697C30.8348 50.259 30.6051 50.3036 30.3482 50.3036C30.0891 50.3036 29.8572 50.259 29.6525 50.1697C29.45 50.0782 29.278 49.952 29.1365 49.7908C28.995 49.6275 28.8872 49.437 28.8132 49.2193C28.7392 49.0016 28.7021 48.7653 28.7021 48.5106ZM29.4892 48.4355V48.5106C29.4892 48.6695 29.5056 48.8198 29.5382 48.9613C29.5709 49.1028 29.6221 49.2269 29.6917 49.3336C29.7614 49.4403 29.8507 49.5241 29.9595 49.5851C30.0684 49.646 30.198 49.6765 30.3482 49.6765C30.4941 49.6765 30.6204 49.646 30.7271 49.5851C30.8359 49.5241 30.9252 49.4403 30.9949 49.3336C31.0645 49.2269 31.1157 49.1028 31.1484 48.9613C31.1832 48.8198 31.2006 48.6695 31.2006 48.5106V48.4355C31.2006 48.2787 31.1832 48.1306 31.1484 47.9913C31.1157 47.8498 31.0634 47.7246 30.9916 47.6157C30.9219 47.5068 30.8327 47.4219 30.7238 47.3609C30.6171 47.2978 30.4897 47.2662 30.3417 47.2662C30.1936 47.2662 30.0651 47.2978 29.9563 47.3609C29.8496 47.4219 29.7614 47.5068 29.6917 47.6157C29.6221 47.7246 29.5709 47.8498 29.5382 47.9913C29.5056 48.1306 29.4892 48.2787 29.4892 48.4355ZM34.7067 49.4055V46.7045H35.4971V50.2383H34.7524L34.7067 49.4055ZM34.8178 48.6706L35.0823 48.6641C35.0823 48.9014 35.0562 49.1202 35.0039 49.3205C34.9517 49.5187 34.8711 49.6918 34.7622 49.8398C34.6534 49.9857 34.514 50.1 34.3442 50.1828C34.1744 50.2633 33.9708 50.3036 33.7335 50.3036C33.5614 50.3036 33.4036 50.2786 33.2599 50.2285C33.1162 50.1784 32.9921 50.1011 32.8876 49.9966C32.7852 49.8921 32.7058 49.756 32.6491 49.5883C32.5925 49.4207 32.5642 49.2204 32.5642 48.9874V46.7045H33.3513V48.9939C33.3513 49.1224 33.3666 49.2302 33.3971 49.3173C33.4275 49.4022 33.4689 49.4708 33.5212 49.523C33.5734 49.5753 33.6344 49.6123 33.7041 49.6341C33.7737 49.6558 33.8478 49.6667 33.9262 49.6667C34.1504 49.6667 34.3268 49.6232 34.4552 49.5361C34.5859 49.4468 34.6784 49.3271 34.7328 49.1768C34.7895 49.0266 34.8178 48.8579 34.8178 48.6706ZM37.6805 49.6765C37.8089 49.6765 37.9243 49.6515 38.0267 49.6014C38.1312 49.5492 38.215 49.4773 38.2781 49.3859C38.3435 49.2944 38.3794 49.1888 38.3859 49.0691H39.1273C39.1229 49.2977 39.0554 49.5056 38.9248 49.6929C38.7942 49.8801 38.6211 50.0293 38.4055 50.1403C38.19 50.2492 37.9515 50.3036 37.6903 50.3036C37.4203 50.3036 37.1851 50.2579 36.9848 50.1664C36.7845 50.0728 36.6179 49.9443 36.4851 49.781C36.3523 49.6177 36.2521 49.4294 36.1846 49.216C36.1193 49.0026 36.0867 48.774 36.0867 48.5302V48.4159C36.0867 48.172 36.1193 47.9434 36.1846 47.73C36.2521 47.5144 36.3523 47.325 36.4851 47.1617C36.6179 46.9984 36.7845 46.871 36.9848 46.7796C37.1851 46.686 37.4192 46.6392 37.687 46.6392C37.9701 46.6392 38.2183 46.6958 38.4316 46.809C38.645 46.92 38.8127 47.0757 38.9346 47.276C39.0587 47.4742 39.1229 47.705 39.1273 47.9684H38.3859C38.3794 47.8378 38.3467 47.7202 38.2879 47.6157C38.2313 47.509 38.1508 47.4241 38.0463 47.3609C37.9439 47.2978 37.8209 47.2662 37.6772 47.2662C37.5183 47.2662 37.3865 47.2989 37.282 47.3642C37.1775 47.4274 37.0959 47.5144 37.0371 47.6255C36.9783 47.7344 36.9358 47.8574 36.9097 47.9945C36.8857 48.1295 36.8738 48.27 36.8738 48.4159V48.5302C36.8738 48.6761 36.8857 48.8176 36.9097 48.9547C36.9336 49.0919 36.975 49.2149 37.0338 49.3238C37.0948 49.4305 37.1775 49.5165 37.282 49.5818C37.3865 49.645 37.5193 49.6765 37.6805 49.6765ZM40.4419 45.2217V50.2383H39.6581V45.2217H40.4419ZM40.3048 48.3407L40.05 48.3375C40.0522 48.0936 40.0859 47.8683 40.1513 47.6614C40.2187 47.4546 40.3124 47.2749 40.4321 47.1225C40.5541 46.9679 40.6999 46.8493 40.8698 46.7665C41.0396 46.6816 41.2279 46.6392 41.4348 46.6392C41.609 46.6392 41.7657 46.6631 41.9051 46.711C42.0466 46.7589 42.1685 46.8362 42.2709 46.9429C42.3732 47.0474 42.4505 47.1846 42.5028 47.3544C42.5572 47.5221 42.5844 47.7267 42.5844 47.9684V50.2383H41.794V47.9619C41.794 47.7921 41.769 47.6571 41.7189 47.5569C41.671 47.4567 41.6003 47.3849 41.5066 47.3414C41.413 47.2956 41.2987 47.2728 41.1637 47.2728C41.0222 47.2728 40.897 47.3011 40.7881 47.3577C40.6814 47.4143 40.5922 47.4916 40.5203 47.5896C40.4485 47.6875 40.394 47.8008 40.357 47.9292C40.3222 48.0577 40.3048 48.1949 40.3048 48.3407ZM44.8723 50.3036C44.611 50.3036 44.3748 50.2611 44.1636 50.1762C43.9546 50.0891 43.776 49.9683 43.628 49.8137C43.4821 49.6591 43.3699 49.4773 43.2916 49.2683C43.2132 49.0593 43.174 48.8339 43.174 48.5922V48.4616C43.174 48.1851 43.2143 47.9347 43.2948 47.7104C43.3754 47.4861 43.4875 47.2945 43.6312 47.1356C43.7749 46.9745 43.9448 46.8515 44.1407 46.7665C44.3367 46.6816 44.549 46.6392 44.7776 46.6392C45.0302 46.6392 45.2512 46.6816 45.4406 46.7665C45.63 46.8515 45.7868 46.9712 45.9109 47.1258C46.0372 47.2782 46.1308 47.46 46.1918 47.6712C46.2549 47.8824 46.2865 48.1154 46.2865 48.3701V48.7065H43.5561V48.1415H45.5092V48.0795C45.5048 47.9379 45.4765 47.8051 45.4243 47.681C45.3742 47.5569 45.2969 47.4567 45.1924 47.3805C45.0879 47.3043 44.9485 47.2662 44.7743 47.2662C44.6437 47.2662 44.5272 47.2945 44.4249 47.3511C44.3247 47.4056 44.2409 47.4851 44.1734 47.5896C44.1059 47.6941 44.0536 47.8204 44.0166 47.9684C43.9818 48.1143 43.9644 48.2787 43.9644 48.4616V48.5922C43.9644 48.7468 43.985 48.8905 44.0264 49.0233C44.07 49.154 44.1331 49.2683 44.2158 49.3663C44.2986 49.4642 44.3987 49.5415 44.5163 49.5981C44.6339 49.6526 44.7678 49.6798 44.918 49.6798C45.1075 49.6798 45.2762 49.6417 45.4243 49.5655C45.5723 49.4893 45.7008 49.3815 45.8096 49.2422L46.2244 49.6439C46.1482 49.7549 46.0491 49.8616 45.9272 49.9639C45.8053 50.0641 45.6561 50.1457 45.4798 50.2089C45.3056 50.272 45.1031 50.3036 44.8723 50.3036ZM47.624 47.3773V50.2383H46.8369V46.7045H47.588L47.624 47.3773ZM48.705 46.6816L48.6985 47.4132C48.6506 47.4045 48.5983 47.398 48.5417 47.3936C48.4873 47.3893 48.4328 47.3871 48.3784 47.3871C48.2434 47.3871 48.1247 47.4067 48.0224 47.4459C47.9201 47.4829 47.8341 47.5373 47.7644 47.6092C47.6969 47.6788 47.6446 47.7638 47.6076 47.8639C47.5706 47.9641 47.5488 48.0762 47.5423 48.2003L47.3627 48.2134C47.3627 47.9913 47.3845 47.7855 47.428 47.5961C47.4716 47.4067 47.5369 47.2401 47.624 47.0964C47.7132 46.9527 47.8243 46.8406 47.9571 46.76C48.0921 46.6794 48.2478 46.6392 48.4241 46.6392C48.472 46.6392 48.5232 46.6435 48.5776 46.6522C48.6342 46.6609 48.6767 46.6707 48.705 46.6816Z" fill="white" fill-opacity="0.4"/>
<path d="M57.9058 50.7295V48.9519L59.0651 48.4108V44.5271H57.9058V42.0732H59.0651V40.3149C59.0651 39.5549 59.1037 38.8464 59.181 38.1895C59.2583 37.5325 59.4193 36.9593 59.6641 36.4698C59.9217 35.9675 60.3017 35.5746 60.8041 35.2912C61.3064 35.0078 61.9892 34.8661 62.8522 34.8661C63.8312 34.8661 64.5719 35.0529 65.0742 35.4264C65.5895 35.7871 65.9373 36.2895 66.1176 36.9336C66.3108 37.5647 66.4075 38.2925 66.4075 39.1169C66.4075 39.1942 66.4075 39.278 66.4075 39.3681C66.4075 39.4454 66.4075 39.5163 66.4075 39.5807H63.6444C63.6444 39.1942 63.6315 38.8464 63.6058 38.5373C63.58 38.2153 63.5092 37.9641 63.3932 37.7837C63.2902 37.6034 63.1163 37.5132 62.8715 37.5132C62.6268 37.5132 62.4464 37.6163 62.3305 37.8224C62.2275 38.0285 62.1631 38.3183 62.1373 38.6919C62.1115 39.0654 62.0986 39.5163 62.0986 40.0444V42.0925H64.398V44.5271H62.0986V48.0631H66.2915V50.7295H57.9058ZM72.0733 50.7295V47.2129H67.2622V44.8363L71.3391 35.0786H75.0876V44.8169H76.5367V47.2129H75.0876V50.7295H72.0733ZM69.7161 44.8169H72.0733V38.3054L69.7161 44.8169ZM82.0322 51.0193C81.0919 51.0193 80.3061 50.8325 79.6749 50.459C79.0437 50.0725 78.5671 49.5444 78.2451 48.8746C77.923 48.2047 77.762 47.4254 77.762 46.5366V39.4454C77.762 38.5308 77.9102 37.7322 78.2064 37.0495C78.5156 36.3539 78.9858 35.8129 79.6169 35.4264C80.2481 35.04 81.0532 34.8468 82.0322 34.8468C83.0112 34.8468 83.8098 35.04 84.4281 35.4264C85.0593 35.8129 85.523 36.3539 85.8193 37.0495C86.1285 37.7322 86.283 38.5308 86.283 39.4454V46.5366C86.283 47.4125 86.122 48.1919 85.8 48.8746C85.478 49.5444 85.0013 50.0725 84.3702 50.459C83.739 50.8325 82.9596 51.0193 82.0322 51.0193ZM82.0322 48.1403C82.3413 48.1403 82.5603 48.0437 82.6891 47.8505C82.8308 47.6444 82.9146 47.4125 82.9403 47.1549C82.979 46.8844 82.9983 46.6525 82.9983 46.4593V39.5227C82.9983 39.3037 82.9854 39.059 82.9596 38.7885C82.9339 38.5051 82.8502 38.2603 82.7085 38.0542C82.5796 37.8353 82.3542 37.7258 82.0322 37.7258C81.7102 37.7258 81.4783 37.8353 81.3366 38.0542C81.2078 38.2603 81.1305 38.5051 81.1047 38.7885C81.079 39.059 81.0661 39.3037 81.0661 39.5227V46.4593C81.0661 46.6525 81.0854 46.8844 81.1241 47.1549C81.1627 47.4125 81.2464 47.6444 81.3752 47.8505C81.5169 48.0437 81.7359 48.1403 82.0322 48.1403Z" fill="white"/>
</svg>
