<svg width="31" height="32" viewBox="0 0 31 32" fill="none" xmlns="http://www.w3.org/2000/svg">
<path fill-rule="evenodd" clip-rule="evenodd" d="M15.5 0.5C6.944 0.5 0 7.444 0 16C0 24.556 6.944 31.5 15.5 31.5C24.056 31.5 31 24.556 31 16C31 7.444 24.056 0.5 15.5 0.5ZM15.5 14.2951C14.5545 14.2951 13.795 15.0546 13.795 16.0001C13.795 16.9456 14.5545 17.7051 15.5 17.7051C16.4455 17.7051 17.205 16.9456 17.205 16.0001C17.205 15.0546 16.4455 14.2951 15.5 14.2951ZM6.20011 25.3L18.8946 19.3945L24.8001 6.69997L12.1056 12.6055L6.20011 25.3Z" fill="white" fill-opacity="0.3"/>
</svg>
