<svg width="40" height="35" viewBox="0 0 40 35" fill="none" xmlns="http://www.w3.org/2000/svg">
<path d="M2.69848 23.7068C2.55532 23.8458 2.51953 24.1123 2.51953 24.2281L7.17211 31.5262C7.6493 31.7579 9.19419 32.256 11.5563 32.395L17.6404 31.3524L17.8194 27.0083C15.4702 27.269 9.83029 27.6165 6.06411 26.9214C6.8767 24.3022 8.3924 22.7308 9.14051 22.2298L11.6457 23.7068L11.3773 17.7988L3.77215 18.1464L6.18791 20.0578C5.08441 21.2162 2.84163 23.5678 2.69848 23.7068Z" fill="#1DBF73"/>
<path d="M5.74055 28.2247C5.82754 27.7648 5.93726 27.3304 6.06411 26.9214M6.06411 26.9214C6.8767 24.3022 8.3924 22.7308 9.14051 22.2298L11.6457 23.7068L11.3773 17.7988L3.77215 18.1464L6.18791 20.0578C5.08441 21.2162 2.84163 23.5678 2.69848 23.7068C2.55532 23.8458 2.51953 24.1123 2.51953 24.2281L7.17211 31.5262C7.6493 31.7579 9.19419 32.256 11.5563 32.395L17.6404 31.3524L17.8194 27.0083C15.4702 27.269 9.83029 27.6165 6.06411 26.9214Z" stroke="#1DBF73" stroke-width="0.154274"/>
<path d="M24.2528 4.87032C24.2004 4.68043 23.9807 4.51711 23.8774 4.45919L15.0423 4.72273C14.5971 5.00818 13.3804 6.0583 12.0754 7.97518L9.96314 13.6129L13.7479 15.9355C14.6901 13.8296 17.2001 8.91298 19.7031 6.09333C21.6327 8.08631 22.2763 10.1466 22.3491 11.0263L19.7792 12.3945L25.1824 15.1228L28.6751 8.55345L25.7625 9.62929C25.2811 8.12209 24.3052 5.06021 24.2528 4.87032Z" fill="#1DBF73"/>
<path d="M18.7025 5.16962C19.0692 5.47272 19.4018 5.78221 19.7031 6.09333M19.7031 6.09333C21.6327 8.08631 22.2763 10.1466 22.3491 11.0263L19.7792 12.3945L25.1824 15.1228L28.6751 8.55345L25.7625 9.62929C25.2811 8.12209 24.3052 5.06021 24.2528 4.87032C24.2004 4.68043 23.9807 4.51711 23.8774 4.45919L15.0423 4.72273C14.5971 5.00818 13.3804 6.0583 12.0754 7.97518L9.96314 13.6129L13.7479 15.9355C14.6901 13.8296 17.2001 8.91298 19.7031 6.09333Z" stroke="#1DBF73" stroke-width="0.154274"/>
<path d="M32.7264 31.5186C32.922 31.5695 33.1775 31.4663 33.2808 31.4084L37.4633 23.8468C37.4313 23.3296 37.1031 21.7814 36.0461 19.7255L32.0742 15.1303L28.1104 17.1519C29.5175 18.9971 32.6474 23.5662 33.9106 27.0809C31.1683 27.7072 29.009 27.2183 28.1882 26.8396L28.2528 23.9944L23.118 27.1741L27.2305 33.3959L27.7273 30.4087C29.3122 30.7574 32.5309 31.4677 32.7264 31.5186Z" fill="#1DBF73"/>
<path d="M35.2346 26.7014C34.781 26.8582 34.3387 26.9831 33.9106 27.0809M33.9106 27.0809C31.1683 27.7072 29.009 27.2183 28.1882 26.8396L28.2528 23.9944L23.118 27.1741L27.2305 33.3959L27.7273 30.4087C29.3122 30.7574 32.5309 31.4677 32.7264 31.5186C32.922 31.5695 33.1775 31.4663 33.2808 31.4084L37.4633 23.8468C37.4313 23.3296 37.1031 21.7814 36.0461 19.7255L32.0742 15.1303L28.1104 17.1519C29.5175 18.9971 32.6474 23.5662 33.9106 27.0809Z" stroke="#1DBF73" stroke-width="0.154274"/>
<g clip-path="url(#clip0_328_8676)">
<path fill-rule="evenodd" clip-rule="evenodd" d="M24.7075 19.0156L18.9505 21.7938C18.4711 22.0269 18.0672 22.1434 17.7441 22.1434C17.3779 22.1434 17.114 21.9962 16.947 21.7018C16.737 21.3216 16.8286 20.7144 17.1894 20.0705C17.4048 19.6964 17.6795 19.3529 17.9487 19.0218C17.8841 19.1383 17.3294 20.1931 17.938 20.6899C18.0565 20.788 18.2288 20.8371 18.4388 20.8371C18.6058 20.8371 18.7997 20.8064 19.0151 20.7451L24.7075 19.0156Z" fill="#1DBF73"/>
</g>
<defs>
<clipPath id="clip0_328_8676">
<rect width="7.87359" height="3.12776" fill="white" transform="translate(16.834 19.0156)"/>
</clipPath>
</defs>
</svg>
