<svg width="151" height="24" viewBox="0 0 151 24" fill="none" xmlns="http://www.w3.org/2000/svg">
<path d="M8.50125 4.52C9.38125 3.24 10.4479 2.22666 11.7013 1.48C12.9546 0.733332 14.3012 0.359998 15.7413 0.359998V8.72H13.5413C11.8346 8.72 10.5679 9.05333 9.74125 9.72C8.91458 10.3867 8.50125 11.5467 8.50125 13.2V23H0.661249V0.559998H8.50125V4.52ZM39.1119 11.52C39.1119 12.1333 39.0719 12.7467 38.9919 13.36H24.1519C24.2319 14.5867 24.5652 15.5067 25.1519 16.12C25.7652 16.7067 26.5385 17 27.4719 17C28.7785 17 29.7119 16.4133 30.2719 15.24H38.6319C38.2852 16.7867 37.6052 18.1733 36.5919 19.4C35.6052 20.6 34.3519 21.5467 32.8319 22.24C31.3119 22.9333 29.6319 23.28 27.7919 23.28C25.5785 23.28 23.6052 22.8133 21.8719 21.88C20.1652 20.9467 18.8185 19.6133 17.8319 17.88C16.8719 16.1467 16.3919 14.1067 16.3919 11.76C16.3919 9.41333 16.8719 7.38667 17.8319 5.68C18.7919 3.94667 20.1252 2.61333 21.8319 1.68C23.5652 0.746665 25.5519 0.279999 27.7919 0.279999C30.0052 0.279999 31.9652 0.733332 33.6719 1.64C35.3785 2.54667 36.7119 3.85333 37.6719 5.56C38.6319 7.24 39.1119 9.22667 39.1119 11.52ZM31.1119 9.56C31.1119 8.6 30.7919 7.85333 30.1519 7.32C29.5119 6.76 28.7119 6.48 27.7519 6.48C26.7919 6.48 26.0052 6.74667 25.3919 7.28C24.7785 7.78667 24.3785 8.54667 24.1919 9.56H31.1119ZM52.2003 15.6L56.4003 0.559998H64.7603L57.0403 23H47.2803L39.5603 0.559998H47.9203L52.2003 15.6ZM87.9769 11.52C87.9769 12.1333 87.9369 12.7467 87.8569 13.36H73.0169C73.0969 14.5867 73.4302 15.5067 74.0169 16.12C74.6302 16.7067 75.4035 17 76.3369 17C77.6435 17 78.5769 16.4133 79.1369 15.24H87.4969C87.1502 16.7867 86.4702 18.1733 85.4569 19.4C84.4702 20.6 83.2169 21.5467 81.6969 22.24C80.1769 22.9333 78.4969 23.28 76.6569 23.28C74.4435 23.28 72.4702 22.8133 70.7369 21.88C69.0302 20.9467 67.6835 19.6133 66.6969 17.88C65.7369 16.1467 65.2569 14.1067 65.2569 11.76C65.2569 9.41333 65.7369 7.38667 66.6969 5.68C67.6569 3.94667 68.9902 2.61333 70.6969 1.68C72.4302 0.746665 74.4169 0.279999 76.6569 0.279999C78.8702 0.279999 80.8302 0.733332 82.5369 1.64C84.2435 2.54667 85.5769 3.85333 86.5369 5.56C87.4969 7.24 87.9769 9.22667 87.9769 11.52ZM79.9769 9.56C79.9769 8.6 79.6569 7.85333 79.0169 7.32C78.3769 6.76 77.5769 6.48 76.6169 6.48C75.6569 6.48 74.8702 6.74667 74.2569 7.28C73.6435 7.78667 73.2435 8.54667 73.0569 9.56H79.9769ZM98.1453 4.52C99.0253 3.24 100.092 2.22666 101.345 1.48C102.599 0.733332 103.945 0.359998 105.385 0.359998V8.72H103.185C101.479 8.72 100.212 9.05333 99.3853 9.72C98.5586 10.3867 98.1453 11.5467 98.1453 13.2V23H90.3053V0.559998H98.1453V4.52ZM116.876 23.28C114.849 23.28 113.036 22.9467 111.436 22.28C109.863 21.5867 108.609 20.6533 107.676 19.48C106.769 18.28 106.263 16.9333 106.156 15.44H113.756C113.863 16.16 114.196 16.72 114.756 17.12C115.316 17.52 116.009 17.72 116.836 17.72C117.476 17.72 117.983 17.5867 118.356 17.32C118.729 17.0533 118.916 16.7067 118.916 16.28C118.916 15.72 118.609 15.3067 117.996 15.04C117.383 14.7733 116.369 14.48 114.956 14.16C113.356 13.84 112.023 13.48 110.956 13.08C109.889 12.68 108.956 12.0267 108.156 11.12C107.383 10.2133 106.996 8.98667 106.996 7.44C106.996 6.10667 107.356 4.90667 108.076 3.84C108.796 2.74667 109.849 1.88 111.236 1.24C112.649 0.599999 114.343 0.279999 116.316 0.279999C119.249 0.279999 121.556 1 123.236 2.44C124.916 3.88 125.889 5.77333 126.156 8.12H119.076C118.943 7.4 118.623 6.85333 118.116 6.48C117.636 6.08 116.983 5.88 116.156 5.88C115.516 5.88 115.023 6 114.676 6.24C114.356 6.48 114.196 6.81333 114.196 7.24C114.196 7.77333 114.503 8.18667 115.116 8.48C115.729 8.74667 116.716 9.02667 118.076 9.32C119.703 9.66667 121.049 10.0533 122.116 10.48C123.209 10.9067 124.156 11.6 124.956 12.56C125.783 13.4933 126.196 14.7733 126.196 16.4C126.196 17.7067 125.809 18.88 125.036 19.92C124.289 20.96 123.209 21.7867 121.796 22.4C120.409 22.9867 118.769 23.28 116.876 23.28ZM150.61 11.52C150.61 12.1333 150.57 12.7467 150.49 13.36H135.65C135.73 14.5867 136.064 15.5067 136.65 16.12C137.264 16.7067 138.037 17 138.97 17C140.277 17 141.21 16.4133 141.77 15.24H150.13C149.784 16.7867 149.104 18.1733 148.09 19.4C147.104 20.6 145.85 21.5467 144.33 22.24C142.81 22.9333 141.13 23.28 139.29 23.28C137.077 23.28 135.104 22.8133 133.37 21.88C131.664 20.9467 130.317 19.6133 129.33 17.88C128.37 16.1467 127.89 14.1067 127.89 11.76C127.89 9.41333 128.37 7.38667 129.33 5.68C130.29 3.94667 131.624 2.61333 133.33 1.68C135.064 0.746665 137.05 0.279999 139.29 0.279999C141.504 0.279999 143.464 0.733332 145.17 1.64C146.877 2.54667 148.21 3.85333 149.17 5.56C150.13 7.24 150.61 9.22667 150.61 11.52ZM142.61 9.56C142.61 8.6 142.29 7.85333 141.65 7.32C141.01 6.76 140.21 6.48 139.25 6.48C138.29 6.48 137.504 6.74667 136.89 7.28C136.277 7.78667 135.877 8.54667 135.69 9.56H142.61Z" fill="#1DBF73"/>
</svg>
