<svg width="33" height="30" viewBox="0 0 33 30" fill="none" xmlns="http://www.w3.org/2000/svg">
<path d="M6.65862 9.72532H22.888C24.0518 9.72532 25.1665 10.2844 25.7927 11.2641C26.1413 11.8089 26.3527 12.4988 26.1836 13.3334C25.8807 14.8313 24.5198 15.8805 22.991 15.8805H10.0804V28.9907H16.4504V22.4925L19.673 22.5266C20.1205 22.5314 20.5386 22.7503 20.7938 23.1177C20.9193 23.2984 21.0632 23.5336 21.2229 23.8377L23.9467 28.4432C24.1978 28.8673 24.6187 29.1721 25.1057 29.2505C25.2074 29.2668 25.3111 29.277 25.4134 29.277H32.5966L27.8624 21.3362C27.8624 21.3362 33.6853 18.7802 32.5966 10.9485C32.5966 10.9485 31.454 4.09577 23.8901 3.11672H6.65862V0.723633L0 6.37977L6.53037 11.9814L6.65862 9.72464V9.72532Z" fill="#231F20"/>
</svg>
