<svg width="101" height="54" viewBox="0 0 101 54" fill="none" xmlns="http://www.w3.org/2000/svg">
<path d="M96.7927 53.5419H4.20731C1.88386 53.5419 0 52.0527 0 50.2159V35.6122C0 34.7102 0.463531 33.8466 1.28468 33.2198C2.10583 32.593 3.21424 32.2569 4.35384 32.2879C4.43 32.2902 4.50835 32.2908 4.58596 32.2908C8.43565 32.2908 11.5679 29.8146 11.5679 26.7713C11.5679 23.7279 8.43565 21.2512 4.58596 21.2512C4.50835 21.2512 4.43 21.2523 4.35384 21.254C3.21351 21.2856 2.10583 20.9489 1.28468 20.3222C0.464256 19.6954 0 18.8317 0 17.9297V3.32605C0 1.48927 1.88386 0 4.20731 0H96.7927C99.1161 0 101 1.48927 101 3.32605V17.9308C101 18.8335 100.536 19.6971 99.7146 20.3239C98.8934 20.9507 97.785 21.2867 96.644 21.2546C96.5417 21.2517 96.4488 21.2506 96.3596 21.2506C92.5099 21.2506 89.3777 23.7268 89.3777 26.7707C89.3777 29.8146 92.5099 32.2902 96.3596 32.2902C96.4488 32.2902 96.5417 32.2891 96.644 32.2862C97.785 32.2547 98.8934 32.5907 99.7146 33.2169C100.536 33.8437 101 34.7073 101 35.6099V50.2147C101 52.0515 99.1161 53.5408 96.7927 53.5408V53.5419Z" fill="#F14215"/>
<path d="M69.9456 13.8515C67.6221 13.8515 65.7383 12.3622 65.7383 10.5255V4.79089C65.7383 2.95411 67.6221 1.46484 69.9456 1.46484C72.269 1.46484 74.1529 2.95411 74.1529 4.79089V10.5255C74.1529 12.3622 72.269 13.8515 69.9456 13.8515ZM69.9456 35.1646C67.6221 35.1646 65.7383 33.6753 65.7383 31.8386V21.182C65.7383 19.3452 67.6221 17.856 69.9456 17.856C72.269 17.856 74.1529 19.3452 74.1529 21.182V31.8386C74.1529 33.6753 72.269 35.1646 69.9456 35.1646ZM69.9456 51.5557C67.6221 51.5557 65.7383 50.0665 65.7383 48.2297V42.4951C65.7383 40.6583 67.6221 39.1691 69.9456 39.1691C72.269 39.1691 74.1529 40.6583 74.1529 42.4951V48.2297C74.1529 50.0665 72.269 51.5557 69.9456 51.5557Z" fill="white" fill-opacity="0.15"/>
<path fill-rule="evenodd" clip-rule="evenodd" d="M60.573 31L16.2714 50.5412C12.5831 52.1804 9.47494 53 6.98842 53C4.17036 53 2.1397 51.9647 0.855 49.8941C-0.761239 47.2196 -0.0567244 42.949 2.71989 38.4196C4.37757 35.7882 6.49112 33.3725 8.56322 31.0431C8.06591 31.8627 3.79738 39.2824 8.48034 42.7765C9.39206 43.4667 10.7182 43.8118 12.3344 43.8118C13.6191 43.8118 15.1111 43.5961 16.7687 43.1647L60.573 31Z" fill="white" fill-opacity="0.2"/>
<rect x="18.063" y="5.04928" width="35.4503" height="35.4503" rx="17.7252" stroke="white" stroke-opacity="0.8" stroke-width="0.668874"/>
<path d="M29.5039 16.8641C29.1721 16.8641 28.8913 16.7492 28.6616 16.5195C28.4446 16.2898 28.3361 16.009 28.3361 15.6772C28.3361 15.3454 28.4446 15.0646 28.6616 14.8349C28.8913 14.6051 29.1721 14.4903 29.5039 14.4903C29.8357 14.4903 30.1101 14.6051 30.3271 14.8349C30.5568 15.0646 30.6717 15.3454 30.6717 15.6772C30.6717 16.009 30.5568 16.2898 30.3271 16.5195C30.1101 16.7492 29.8357 16.8641 29.5039 16.8641ZM30.3654 31.3367C30.3654 32.2683 30.1293 32.9511 29.657 33.3851C29.1848 33.819 28.4957 34.0359 27.5895 34.0359H26.5749V32.5619H27.3024C27.7873 32.5619 28.1256 32.4662 28.317 32.2747C28.5212 32.0833 28.6233 31.7578 28.6233 31.2984V18.5679H30.3654V31.3367Z" fill="white"/>
<path d="M39.8806 29.0586L37.0857 23.9855H36.3008V29.0586H33.0272V15.6198H38.5214C39.5807 15.6198 40.4805 15.8048 41.2207 16.1749C41.9737 16.545 42.5352 17.0555 42.9053 17.7064C43.2755 18.3445 43.4605 19.0592 43.4605 19.8505C43.4605 20.7439 43.2053 21.5415 42.6948 22.2435C42.197 22.9454 41.4568 23.4431 40.4741 23.7367L43.5754 29.0586H39.8806ZM36.3008 21.6691H38.33C38.9298 21.6691 39.3765 21.5224 39.6701 21.2288C39.9764 20.9353 40.1295 20.5205 40.1295 19.9845C40.1295 19.474 39.9764 19.072 39.6701 18.7785C39.3765 18.4849 38.9298 18.3382 38.33 18.3382H36.3008V21.6691Z" fill="#1DBF73"/>
<path d="M26.3027 48.886L27.1681 45.976H27.9846L26.7566 49.5098H26.2471L26.3027 48.886ZM25.6397 45.976L26.5215 48.899L26.5639 49.5098H26.0544L24.8199 45.976H25.6397ZM28.2019 47.7821V47.7069C28.2019 47.4522 28.2389 47.216 28.3129 46.9982C28.387 46.7783 28.4937 46.5878 28.633 46.4267C28.7745 46.2634 28.9465 46.1371 29.149 46.0478C29.3537 45.9564 29.5845 45.9106 29.8414 45.9106C30.1005 45.9106 30.3313 45.9564 30.5338 46.0478C30.7385 46.1371 30.9116 46.2634 31.0531 46.4267C31.1946 46.5878 31.3024 46.7783 31.3764 46.9982C31.4505 47.216 31.4875 47.4522 31.4875 47.7069V47.7821C31.4875 48.0368 31.4505 48.273 31.3764 48.4908C31.3024 48.7085 31.1946 48.899 31.0531 49.0623C30.9116 49.2234 30.7396 49.3497 30.5371 49.4412C30.3346 49.5305 30.1049 49.5751 29.848 49.5751C29.5888 49.5751 29.357 49.5305 29.1523 49.4412C28.9498 49.3497 28.7778 49.2234 28.6363 49.0623C28.4947 48.899 28.387 48.7085 28.3129 48.4908C28.2389 48.273 28.2019 48.0368 28.2019 47.7821ZM28.989 47.7069V47.7821C28.989 47.941 29.0053 48.0912 29.038 48.2328C29.0706 48.3743 29.1218 48.4984 29.1915 48.6051C29.2612 48.7118 29.3504 48.7956 29.4593 48.8566C29.5682 48.9175 29.6977 48.948 29.848 48.948C29.9938 48.948 30.1201 48.9175 30.2268 48.8566C30.3357 48.7956 30.4249 48.7118 30.4946 48.6051C30.5643 48.4984 30.6155 48.3743 30.6481 48.2328C30.683 48.0912 30.7004 47.941 30.7004 47.7821V47.7069C30.7004 47.5502 30.683 47.4021 30.6481 47.2628C30.6155 47.1212 30.5632 46.996 30.4914 46.8872C30.4217 46.7783 30.3324 46.6934 30.2235 46.6324C30.1169 46.5693 29.9895 46.5377 29.8414 46.5377C29.6934 46.5377 29.5649 46.5693 29.456 46.6324C29.3493 46.6934 29.2612 46.7783 29.1915 46.8872C29.1218 46.996 29.0706 47.1212 29.038 47.2628C29.0053 47.4021 28.989 47.5502 28.989 47.7069ZM34.2065 48.6769V45.976H34.9968V49.5098H34.2522L34.2065 48.6769ZM34.3175 47.9421L34.5821 47.9356C34.5821 48.1729 34.5559 48.3917 34.5037 48.592C34.4514 48.7902 34.3709 48.9633 34.262 49.1113C34.1531 49.2572 34.0138 49.3715 33.844 49.4542C33.6741 49.5348 33.4705 49.5751 33.2332 49.5751C33.0612 49.5751 32.9033 49.55 32.7596 49.5C32.6159 49.4499 32.4918 49.3726 32.3873 49.2681C32.285 49.1636 32.2055 49.0275 32.1489 48.8598C32.0923 48.6922 32.064 48.4919 32.064 48.2589V45.976H32.8511V48.2654C32.8511 48.3939 32.8663 48.5017 32.8968 48.5888C32.9273 48.6737 32.9687 48.7423 33.0209 48.7945C33.0732 48.8468 33.1341 48.8838 33.2038 48.9056C33.2735 48.9273 33.3475 48.9382 33.4259 48.9382C33.6502 48.9382 33.8265 48.8947 33.955 48.8076C34.0856 48.7183 34.1782 48.5986 34.2326 48.4483C34.2892 48.2981 34.3175 48.1293 34.3175 47.9421ZM37.1802 48.948C37.3087 48.948 37.4241 48.923 37.5264 48.8729C37.6309 48.8206 37.7148 48.7488 37.7779 48.6573C37.8432 48.5659 37.8791 48.4603 37.8857 48.3405H38.6271C38.6227 48.5692 38.5552 48.7771 38.4246 48.9643C38.2939 49.1516 38.1208 49.3007 37.9053 49.4118C37.6897 49.5207 37.4513 49.5751 37.19 49.5751C36.92 49.5751 36.6849 49.5294 36.4846 49.4379C36.2843 49.3443 36.1177 49.2158 35.9849 49.0525C35.8521 48.8892 35.7519 48.7009 35.6844 48.4875C35.6191 48.2741 35.5864 48.0455 35.5864 47.8017V47.6873C35.5864 47.4435 35.6191 47.2149 35.6844 47.0015C35.7519 46.7859 35.8521 46.5965 35.9849 46.4332C36.1177 46.2699 36.2843 46.1425 36.4846 46.0511C36.6849 45.9575 36.9189 45.9106 37.1868 45.9106C37.4698 45.9106 37.718 45.9673 37.9314 46.0805C38.1448 46.1915 38.3124 46.3472 38.4344 46.5475C38.5585 46.7457 38.6227 46.9764 38.6271 47.2399H37.8857C37.8791 47.1093 37.8465 46.9917 37.7877 46.8872C37.7311 46.7805 37.6505 46.6956 37.546 46.6324C37.4437 46.5693 37.3207 46.5377 37.177 46.5377C37.018 46.5377 36.8863 46.5704 36.7818 46.6357C36.6773 46.6988 36.5956 46.7859 36.5368 46.897C36.478 47.0058 36.4356 47.1289 36.4095 47.266C36.3855 47.401 36.3735 47.5415 36.3735 47.6873V47.8017C36.3735 47.9475 36.3855 48.0891 36.4095 48.2262C36.4334 48.3634 36.4748 48.4864 36.5336 48.5953C36.5945 48.702 36.6773 48.788 36.7818 48.8533C36.8863 48.9164 37.0191 48.948 37.1802 48.948ZM39.9417 44.4932V49.5098H39.1578V44.4932H39.9417ZM39.8045 47.6122L39.5498 47.609C39.5519 47.3651 39.5857 47.1397 39.651 46.9329C39.7185 46.7261 39.8121 46.5464 39.9319 46.394C40.0538 46.2394 40.1997 46.1208 40.3695 46.038C40.5394 45.9531 40.7277 45.9106 40.9345 45.9106C41.1087 45.9106 41.2655 45.9346 41.4048 45.9825C41.5464 46.0304 41.6683 46.1077 41.7706 46.2144C41.873 46.3189 41.9503 46.4561 42.0025 46.6259C42.057 46.7936 42.0842 46.9982 42.0842 47.2399V49.5098H41.2938V47.2334C41.2938 47.0635 41.2688 46.9285 41.2187 46.8284C41.1708 46.7282 41.1 46.6564 41.0064 46.6128C40.9128 46.5671 40.7985 46.5442 40.6635 46.5442C40.5219 46.5442 40.3967 46.5726 40.2879 46.6292C40.1812 46.6858 40.0919 46.7631 40.0201 46.861C39.9482 46.959 39.8938 47.0723 39.8568 47.2007C39.8219 47.3292 39.8045 47.4663 39.8045 47.6122ZM44.3721 49.5751C44.1108 49.5751 43.8745 49.5326 43.6633 49.4477C43.4543 49.3606 43.2758 49.2398 43.1277 49.0852C42.9818 48.9306 42.8697 48.7488 42.7913 48.5398C42.7129 48.3307 42.6737 48.1054 42.6737 47.8637V47.7331C42.6737 47.4565 42.714 47.2062 42.7946 46.9819C42.8751 46.7576 42.9873 46.566 43.131 46.4071C43.2747 46.246 43.4445 46.1229 43.6405 46.038C43.8364 45.9531 44.0487 45.9106 44.2773 45.9106C44.5299 45.9106 44.7509 45.9531 44.9403 46.038C45.1298 46.1229 45.2865 46.2427 45.4106 46.3973C45.5369 46.5497 45.6306 46.7315 45.6915 46.9427C45.7547 47.1539 45.7862 47.3869 45.7862 47.6416V47.978H43.0559V47.413H45.0089V47.3509C45.0046 47.2094 44.9763 47.0766 44.924 46.9525C44.8739 46.8284 44.7966 46.7282 44.6921 46.652C44.5876 46.5758 44.4483 46.5377 44.2741 46.5377C44.1434 46.5377 44.027 46.566 43.9246 46.6226C43.8245 46.6771 43.7406 46.7565 43.6731 46.861C43.6056 46.9656 43.5534 47.0918 43.5164 47.2399C43.4815 47.3858 43.4641 47.5502 43.4641 47.7331V47.8637C43.4641 48.0183 43.4848 48.162 43.5262 48.2948C43.5697 48.4255 43.6329 48.5398 43.7156 48.6377C43.7983 48.7357 43.8985 48.813 44.0161 48.8696C44.1336 48.9241 44.2675 48.9513 44.4178 48.9513C44.6072 48.9513 44.776 48.9132 44.924 48.837C45.0721 48.7608 45.2005 48.653 45.3094 48.5136L45.7242 48.9154C45.648 49.0264 45.5489 49.1331 45.427 49.2354C45.305 49.3356 45.1559 49.4172 44.9795 49.4804C44.8053 49.5435 44.6029 49.5751 44.3721 49.5751ZM47.1237 46.6488V49.5098H46.3366V45.976H47.0878L47.1237 46.6488ZM48.2048 45.9531L48.1982 46.6847C48.1503 46.676 48.0981 46.6694 48.0415 46.6651C47.987 46.6607 47.9326 46.6586 47.8782 46.6586C47.7432 46.6586 47.6245 46.6782 47.5222 46.7173C47.4198 46.7544 47.3338 46.8088 47.2642 46.8806C47.1967 46.9503 47.1444 47.0352 47.1074 47.1354C47.0704 47.2355 47.0486 47.3477 47.0421 47.4718L46.8624 47.4849C46.8624 47.2628 46.8842 47.057 46.9278 46.8676C46.9713 46.6782 47.0366 46.5116 47.1237 46.3679C47.213 46.2242 47.324 46.1121 47.4568 46.0315C47.5918 45.9509 47.7475 45.9106 47.9239 45.9106C47.9718 45.9106 48.023 45.915 48.0774 45.9237C48.134 45.9324 48.1765 45.9422 48.2048 45.9531Z" fill="white" fill-opacity="0.4"/>
<path d="M57.4058 50V48.2224L58.5651 47.6814V43.7976H57.4058V41.3437H58.5651V39.5854C58.5651 38.8254 58.6037 38.1169 58.681 37.46C58.7583 36.803 58.9193 36.2298 59.1641 35.7403C59.4217 35.238 59.8017 34.8451 60.3041 34.5617C60.8064 34.2783 61.4892 34.1366 62.3522 34.1366C63.3312 34.1366 64.0719 34.3234 64.5742 34.6969C65.0895 35.0576 65.4373 35.56 65.6176 36.2041C65.8108 36.8353 65.9075 37.563 65.9075 38.3875C65.9075 38.4647 65.9075 38.5485 65.9075 38.6386C65.9075 38.7159 65.9075 38.7868 65.9075 38.8512H63.1444C63.1444 38.4647 63.1315 38.1169 63.1058 37.8078C63.08 37.4858 63.0092 37.2346 62.8932 37.0542C62.7902 36.8739 62.6163 36.7837 62.3715 36.7837C62.1268 36.7837 61.9464 36.8868 61.8305 37.0929C61.7275 37.299 61.6631 37.5888 61.6373 37.9624C61.6115 38.3359 61.5986 38.7868 61.5986 39.3149V41.363H63.898V43.7976H61.5986V47.3336H65.7915V50H57.4058ZM71.5733 50V46.4834H66.7622V44.1068L70.8391 34.3492H74.5876V44.0875H76.0367V46.4834H74.5876V50H71.5733ZM69.2161 44.0875H71.5733V37.5759L69.2161 44.0875ZM81.5322 50.2898C80.5919 50.2898 79.8061 50.1031 79.1749 49.7295C78.5437 49.3431 78.0671 48.8149 77.7451 48.1451C77.423 47.4753 77.262 46.6959 77.262 45.8071V38.7159C77.262 37.8014 77.4102 37.0027 77.7064 36.32C78.0156 35.6244 78.4858 35.0834 79.1169 34.6969C79.7481 34.3105 80.5532 34.1173 81.5322 34.1173C82.5112 34.1173 83.3098 34.3105 83.9281 34.6969C84.5593 35.0834 85.023 35.6244 85.3193 36.32C85.6285 37.0027 85.783 37.8014 85.783 38.7159V45.8071C85.783 46.6831 85.622 47.4624 85.3 48.1451C84.978 48.8149 84.5013 49.3431 83.8702 49.7295C83.239 50.1031 82.4596 50.2898 81.5322 50.2898ZM81.5322 47.4108C81.8413 47.4108 82.0603 47.3142 82.1891 47.121C82.3308 46.9149 82.4146 46.6831 82.4403 46.4254C82.479 46.1549 82.4983 45.9231 82.4983 45.7298V38.7932C82.4983 38.5742 82.4854 38.3295 82.4596 38.059C82.4339 37.7756 82.3502 37.5308 82.2085 37.3247C82.0796 37.1058 81.8542 36.9963 81.5322 36.9963C81.2102 36.9963 80.9783 37.1058 80.8366 37.3247C80.7078 37.5308 80.6305 37.7756 80.6047 38.059C80.579 38.3295 80.5661 38.5742 80.5661 38.7932V45.7298C80.5661 45.9231 80.5854 46.1549 80.6241 46.4254C80.6627 46.6831 80.7464 46.9149 80.8752 47.121C81.0169 47.3142 81.2359 47.4108 81.5322 47.4108Z" fill="white"/>
</svg>
